<svg xmlns="http://www.w3.org/2000/svg" xmlns:xlink="http://www.w3.org/1999/xlink" width="1080" zoomAndPan="magnify" viewBox="0 0 810 809.999993" height="1080" preserveAspectRatio="xMidYMid meet" version="1.0"><defs><g/></defs><g fill="#000000" fill-opacity="1"><g transform="translate(160.8144, 316.149298)"><g><path d="M -36.0625 -31.96875 L -17.953125 -23.484375 L -6.796875 -47.3125 L -2.59375 -45.34375 L -13.75 -21.515625 L 5.796875 -12.359375 L 3.515625 -7.5 L -42.546875 -29.078125 L -27.75 -60.671875 L -23.546875 -58.703125 Z M -36.0625 -31.96875 "/></g></g></g><g fill="#000000" fill-opacity="1"><g transform="translate(178.240945, 277.888855)"><g><path d="M -7.71875 -55.984375 L 23.703125 -34.234375 L 20.890625 -30.1875 L 15.15625 -34.15625 C 16.300781 -31.71875 16.722656 -29.15625 16.421875 -26.46875 C 16.117188 -23.789062 15.101562 -21.195312 13.375 -18.6875 C 10.53125 -14.582031 7.140625 -12.132812 3.203125 -11.34375 C -0.722656 -10.550781 -4.894531 -11.6875 -9.3125 -14.75 L -27.53125 -27.359375 L -24.609375 -31.609375 L -6.8125 -19.28125 C -3.5 -17 -0.421875 -16.082031 2.421875 -16.53125 C 5.273438 -16.976562 7.75 -18.710938 9.84375 -21.734375 C 12.125 -25.035156 12.921875 -28.335938 12.234375 -31.640625 C 11.546875 -34.953125 9.410156 -37.851562 5.828125 -40.34375 L -10.65625 -51.75 Z M -7.71875 -55.984375 "/></g></g></g><g fill="#000000" fill-opacity="1"><g transform="translate(204.966722, 240.51396)"><g><path d="M -35.5625 -41.171875 L -32.125 -45.046875 L 8.203125 -9.25 L 4.765625 -5.375 Z M -35.5625 -41.171875 "/></g></g></g><g fill="#000000" fill-opacity="1"><g transform="translate(216.785936, 227.111148)"><g><path d="M -32.640625 -43.515625 L -28.9375 -47.140625 L 8.828125 -8.65625 L 5.125 -5.03125 Z M -32.640625 -43.515625 "/></g></g></g><g fill="#000000" fill-opacity="1"><g transform="translate(229.122155, 214.6447)"><g><path d="M -10.65625 -19.671875 L 4 -31.84375 L 6.875 -28.375 L -7.78125 -16.203125 Z M -10.65625 -19.671875 "/></g></g></g><g fill="#000000" fill-opacity="1"><g transform="translate(247.678709, 198.29129)"><g><path d="M 19.078125 -11.578125 C 15.878906 -9.546875 12.492188 -8.113281 8.921875 -7.28125 C 5.347656 -6.457031 2.238281 -6.378906 -0.40625 -7.046875 L -0.859375 -11.65625 C 1.679688 -11.101562 4.546875 -11.160156 7.734375 -11.828125 C 10.921875 -12.503906 13.882812 -13.710938 16.625 -15.453125 C 20.46875 -17.890625 22.898438 -20.421875 23.921875 -23.046875 C 24.953125 -25.679688 24.753906 -28.125 23.328125 -30.375 C 22.242188 -32.09375 20.851562 -33.132812 19.15625 -33.5 C 17.46875 -33.863281 15.691406 -33.835938 13.828125 -33.421875 C 11.972656 -33.003906 9.484375 -32.273438 6.359375 -31.234375 C 2.597656 -29.992188 -0.476562 -29.140625 -2.875 -28.671875 C -5.28125 -28.210938 -7.65625 -28.328125 -10 -29.015625 C -12.351562 -29.703125 -14.375 -31.378906 -16.0625 -34.046875 C -17.4375 -36.210938 -18.117188 -38.546875 -18.109375 -41.046875 C -18.097656 -43.554688 -17.238281 -46.097656 -15.53125 -48.671875 C -13.832031 -51.242188 -11.222656 -53.644531 -7.703125 -55.875 C -5.242188 -57.425781 -2.625 -58.609375 0.15625 -59.421875 C 2.9375 -60.242188 5.554688 -60.597656 8.015625 -60.484375 L 8.78125 -55.90625 C 6.226562 -55.945312 3.742188 -55.613281 1.328125 -54.90625 C -1.085938 -54.207031 -3.28125 -53.238281 -5.25 -52 C -9.007812 -49.613281 -11.378906 -47.085938 -12.359375 -44.421875 C -13.347656 -41.765625 -13.117188 -39.289062 -11.671875 -37 C -10.585938 -35.28125 -9.191406 -34.226562 -7.484375 -33.84375 C -5.773438 -33.457031 -3.957031 -33.488281 -2.03125 -33.9375 C -0.101562 -34.394531 2.394531 -35.132812 5.46875 -36.15625 C 9.113281 -37.382812 12.144531 -38.234375 14.5625 -38.703125 C 16.988281 -39.179688 19.363281 -39.082031 21.6875 -38.40625 C 24.007812 -37.726562 26.003906 -36.078125 27.671875 -33.453125 C 29.035156 -31.296875 29.703125 -28.957031 29.671875 -26.4375 C 29.640625 -23.914062 28.742188 -21.363281 26.984375 -18.78125 C 25.234375 -16.207031 22.597656 -13.804688 19.078125 -11.578125 Z M 19.078125 -11.578125 "/></g></g></g><g fill="#000000" fill-opacity="1"><g transform="translate(282.899121, 176.305322)"><g><path d="M 23.8125 -13.609375 C 23.300781 -12.410156 22.492188 -11.300781 21.390625 -10.28125 C 20.285156 -9.257812 19.035156 -8.425781 17.640625 -7.78125 C 14.378906 -6.269531 11.457031 -5.984375 8.875 -6.921875 C 6.300781 -7.867188 4.269531 -9.941406 2.78125 -13.140625 L -6.9375 -34.109375 L -13.125 -31.234375 L -14.953125 -35.1875 L -8.765625 -38.0625 L -12.28125 -45.640625 L -7.609375 -47.8125 L -4.09375 -40.234375 L 6.46875 -45.125 L 8.296875 -41.171875 L -2.265625 -36.28125 L 7.34375 -15.578125 C 8.300781 -13.515625 9.546875 -12.179688 11.078125 -11.578125 C 12.617188 -10.984375 14.359375 -11.132812 16.296875 -12.03125 C 17.265625 -12.476562 18.125 -13.066406 18.875 -13.796875 C 19.632812 -14.535156 20.210938 -15.335938 20.609375 -16.203125 Z M 23.8125 -13.609375 "/></g></g></g><g fill="#000000" fill-opacity="1"><g transform="translate(306.645069, 164.605194)"><g><path d="M 7.96875 -42.921875 C 12.71875 -44.429688 16.738281 -44.398438 20.03125 -42.828125 C 23.332031 -41.253906 25.722656 -38.132812 27.203125 -33.46875 L 34.359375 -10.890625 L 29.65625 -9.390625 L 27.859375 -15.0625 C 27.335938 -12.832031 26.171875 -10.84375 24.359375 -9.09375 C 22.546875 -7.351562 20.164062 -6.015625 17.21875 -5.078125 C 13.15625 -3.796875 9.613281 -3.738281 6.59375 -4.90625 C 3.582031 -6.082031 1.570312 -8.265625 0.5625 -11.453125 C -0.414062 -14.546875 -0.0859375 -17.394531 1.546875 -20 C 3.191406 -22.601562 6.460938 -24.675781 11.359375 -26.21875 L 22.9375 -29.890625 L 22.234375 -32.125 C 21.234375 -35.257812 19.59375 -37.367188 17.3125 -38.453125 C 15.03125 -39.535156 12.207031 -39.546875 8.84375 -38.484375 C 6.53125 -37.742188 4.429688 -36.65625 2.546875 -35.21875 C 0.671875 -33.789062 -0.8125 -32.164062 -1.90625 -30.34375 L -5.296875 -33.3125 C -3.953125 -35.46875 -2.125 -37.378906 0.1875 -39.046875 C 2.507812 -40.722656 5.101562 -42.015625 7.96875 -42.921875 Z M 16.75 -9.1875 C 19.519531 -10.070312 21.695312 -11.460938 23.28125 -13.359375 C 24.863281 -15.265625 25.765625 -17.570312 25.984375 -20.28125 L 24.09375 -26.234375 L 12.65625 -22.609375 C 6.414062 -20.628906 3.984375 -17.46875 5.359375 -13.125 C 6.035156 -11 7.375 -9.582031 9.375 -8.875 C 11.382812 -8.164062 13.84375 -8.269531 16.75 -9.1875 Z M 16.75 -9.1875 "/></g></g></g><g fill="#000000" fill-opacity="1"><g transform="translate(344.090545, 152.544045)"><g><path d="M 22.796875 -3.296875 C 19.078125 -2.691406 15.613281 -2.96875 12.40625 -4.125 C 9.207031 -5.28125 6.53125 -7.191406 4.375 -9.859375 C 2.226562 -12.535156 0.859375 -15.71875 0.265625 -19.40625 C -0.328125 -23.082031 -0.0195312 -26.515625 1.1875 -29.703125 C 2.394531 -32.898438 4.335938 -35.546875 7.015625 -37.640625 C 9.703125 -39.734375 12.90625 -41.082031 16.625 -41.6875 C 19.882812 -42.207031 22.894531 -42.039062 25.65625 -41.1875 C 28.414062 -40.332031 30.734375 -38.800781 32.609375 -36.59375 L 29.21875 -33.40625 C 27.6875 -35.0625 25.890625 -36.203125 23.828125 -36.828125 C 21.765625 -37.453125 19.601562 -37.585938 17.34375 -37.234375 C 14.625 -36.796875 12.273438 -35.789062 10.296875 -34.21875 C 8.316406 -32.644531 6.894531 -30.632812 6.03125 -28.1875 C 5.175781 -25.75 4.976562 -23.097656 5.4375 -20.234375 C 5.90625 -17.316406 6.925781 -14.84375 8.5 -12.8125 C 10.082031 -10.789062 12.054688 -9.34375 14.421875 -8.46875 C 16.796875 -7.601562 19.34375 -7.390625 22.0625 -7.828125 C 24.320312 -8.179688 26.332031 -8.960938 28.09375 -10.171875 C 29.863281 -11.378906 31.21875 -13.023438 32.15625 -15.109375 L 36.375 -13.125 C 35.289062 -10.445312 33.554688 -8.265625 31.171875 -6.578125 C 28.796875 -4.898438 26.003906 -3.804688 22.796875 -3.296875 Z M 22.796875 -3.296875 "/></g></g></g><g fill="#000000" fill-opacity="1"><g transform="translate(380.916276, 146.258781)"><g><path d="M 21.15625 -19.40625 L 12.25 -11.03125 L 12.359375 -0.125 L 7.1875 -0.078125 L 6.640625 -54 L 11.8125 -54.046875 L 12.1875 -17.5 L 34.78125 -38.578125 L 41.171875 -38.640625 L 24.984375 -22.859375 L 43.09375 -0.4375 L 36.765625 -0.375 Z M 21.15625 -19.40625 "/></g></g></g><g fill="#000000" fill-opacity="1"><g transform="translate(421.890977, 146.368237)"><g/></g></g><g fill="#000000" fill-opacity="1"><g transform="translate(437.773425, 146.303029)"><g><path d="M 20.109375 -47.453125 L 40.234375 -42.546875 C 45.453125 -41.265625 49.804688 -39.085938 53.296875 -36.015625 C 56.796875 -32.953125 59.191406 -29.273438 60.484375 -24.984375 C 61.785156 -20.703125 61.847656 -16.164062 60.671875 -11.375 C 59.503906 -6.5625 57.359375 -2.554688 54.234375 0.640625 C 51.109375 3.835938 47.285156 5.992188 42.765625 7.109375 C 38.253906 8.234375 33.390625 8.15625 28.171875 6.875 L 8.046875 1.96875 Z M 29 2.296875 C 33.320312 3.347656 37.316406 3.410156 40.984375 2.484375 C 44.648438 1.566406 47.742188 -0.191406 50.265625 -2.796875 C 52.796875 -5.398438 54.546875 -8.679688 55.515625 -12.640625 C 56.484375 -16.585938 56.441406 -20.296875 55.390625 -23.765625 C 54.347656 -27.234375 52.410156 -30.222656 49.578125 -32.734375 C 46.753906 -35.253906 43.179688 -37.039062 38.859375 -38.09375 L 24.234375 -41.671875 L 14.375 -1.28125 Z M 29 2.296875 "/></g></g></g><g fill="#000000" fill-opacity="1"><g transform="translate(491.7509, 159.828589)"><g><path d="M 44.109375 0.640625 L 14.9375 -12.484375 C 13.570312 -8.742188 13.644531 -5.191406 15.15625 -1.828125 C 16.675781 1.535156 19.359375 4.082031 23.203125 5.8125 C 25.367188 6.789062 27.53125 7.296875 29.6875 7.328125 C 31.851562 7.367188 33.9375 6.9375 35.9375 6.03125 L 37.21875 10.265625 C 34.832031 11.441406 32.257812 11.988281 29.5 11.90625 C 26.75 11.832031 23.984375 11.171875 21.203125 9.921875 C 17.617188 8.316406 14.785156 6.128906 12.703125 3.359375 C 10.628906 0.585938 9.425781 -2.488281 9.09375 -5.875 C 8.757812 -9.257812 9.359375 -12.648438 10.890625 -16.046875 C 12.410156 -19.453125 14.519531 -22.171875 17.21875 -24.203125 C 19.914062 -26.234375 22.894531 -27.414062 26.15625 -27.75 C 29.414062 -28.09375 32.65625 -27.539062 35.875 -26.09375 C 39.101562 -24.644531 41.660156 -22.59375 43.546875 -19.9375 C 45.429688 -17.289062 46.5 -14.300781 46.75 -10.96875 C 47.007812 -7.632812 46.367188 -4.242188 44.828125 -0.796875 Z M 34.046875 -22.046875 C 30.691406 -23.554688 27.394531 -23.75 24.15625 -22.625 C 20.914062 -21.507812 18.367188 -19.300781 16.515625 -16 L 41.25 -4.875 C 42.46875 -8.46875 42.421875 -11.84375 41.109375 -15 C 39.804688 -18.164062 37.453125 -20.515625 34.046875 -22.046875 Z M 34.046875 -22.046875 "/></g></g></g><g fill="#000000" fill-opacity="1"><g transform="translate(528.60783, 176.301362)"><g><path d="M 53.703125 -11 L 18.796875 12.03125 L 14.3125 9.15625 L 20.65625 -32.140625 L 25.1875 -29.25 L 19.703125 5.875 L 49.421875 -13.734375 Z M 53.703125 -11 "/></g></g></g><g fill="#000000" fill-opacity="1"><g transform="translate(559.071107, 195.289558)"><g><path d="M 42.046875 13.359375 L 17.90625 -7.640625 C 15.53125 -4.453125 14.578125 -1.03125 15.046875 2.625 C 15.515625 6.28125 17.34375 9.492188 20.53125 12.265625 C 22.320312 13.828125 24.242188 14.9375 26.296875 15.59375 C 28.347656 16.257812 30.46875 16.453125 32.65625 16.171875 L 32.640625 20.609375 C 30.023438 21.023438 27.410156 20.796875 24.796875 19.921875 C 22.179688 19.054688 19.722656 17.625 17.421875 15.625 C 14.460938 13.050781 12.390625 10.140625 11.203125 6.890625 C 10.015625 3.640625 9.75 0.34375 10.40625 -3 C 11.0625 -6.34375 12.613281 -9.421875 15.0625 -12.234375 C 17.507812 -15.046875 20.316406 -17.03125 23.484375 -18.1875 C 26.648438 -19.351562 29.84375 -19.628906 33.0625 -19.015625 C 36.28125 -18.398438 39.222656 -16.929688 41.890625 -14.609375 C 44.566406 -12.285156 46.421875 -9.578125 47.453125 -6.484375 C 48.484375 -3.398438 48.640625 -0.234375 47.921875 3.015625 C 47.210938 6.273438 45.617188 9.332031 43.140625 12.1875 Z M 38.96875 -11.25 C 36.195312 -13.664062 33.097656 -14.804688 29.671875 -14.671875 C 26.242188 -14.535156 23.160156 -13.15625 20.421875 -10.53125 L 40.875 7.265625 C 43.101562 4.179688 44.046875 0.9375 43.703125 -2.46875 C 43.359375 -5.875 41.78125 -8.800781 38.96875 -11.25 Z M 38.96875 -11.25 "/></g></g></g><g fill="#000000" fill-opacity="1"><g transform="translate(589.774285, 222.699917)"><g><path d="M 44.5625 -31.1875 L 48.0625 -27.390625 L 8.359375 9.09375 L 4.859375 5.296875 Z M 44.5625 -31.1875 "/></g></g></g><g fill="#000000" fill-opacity="1"><g transform="translate(601.820328, 234.475074)"><g><path d="M 13.109375 18.671875 C 10.953125 15.703125 9.679688 12.53125 9.296875 9.15625 C 8.910156 5.78125 9.414062 2.539062 10.8125 -0.5625 C 12.207031 -3.675781 14.410156 -6.332031 17.421875 -8.53125 C 20.441406 -10.71875 23.644531 -11.992188 27.03125 -12.359375 C 30.414062 -12.722656 33.644531 -12.191406 36.71875 -10.765625 C 39.789062 -9.347656 42.40625 -7.15625 44.5625 -4.1875 C 46.726562 -1.207031 48.015625 1.957031 48.421875 5.3125 C 48.828125 8.675781 48.320312 11.90625 46.90625 15 C 45.5 18.09375 43.285156 20.734375 40.265625 22.921875 C 37.253906 25.117188 34.0625 26.40625 30.6875 26.78125 C 27.320312 27.164062 24.09375 26.65625 21 25.25 C 17.90625 23.84375 15.273438 21.648438 13.109375 18.671875 Z M 16.8125 15.96875 C 18.414062 18.164062 20.347656 19.773438 22.609375 20.796875 C 24.878906 21.816406 27.289062 22.144531 29.84375 21.78125 C 32.394531 21.425781 34.84375 20.394531 37.1875 18.6875 C 39.539062 16.976562 41.285156 14.960938 42.421875 12.640625 C 43.554688 10.328125 43.988281 7.929688 43.71875 5.453125 C 43.457031 2.984375 42.523438 0.648438 40.921875 -1.546875 C 39.328125 -3.734375 37.394531 -5.332031 35.125 -6.34375 C 32.863281 -7.363281 30.445312 -7.703125 27.875 -7.359375 C 25.3125 -7.023438 22.851562 -6.003906 20.5 -4.296875 C 18.15625 -2.585938 16.421875 -0.566406 15.296875 1.765625 C 14.179688 4.109375 13.753906 6.515625 14.015625 8.984375 C 14.285156 11.453125 15.21875 13.78125 16.8125 15.96875 Z M 16.8125 15.96875 "/></g></g></g><g fill="#000000" fill-opacity="1"><g transform="translate(626.676673, 267.851783)"><g><path d="M 46.453125 6.9375 C 48.046875 10.144531 48.765625 13.410156 48.609375 16.734375 C 48.453125 20.066406 47.414062 23.125 45.5 25.90625 C 43.582031 28.695312 40.929688 30.9375 37.546875 32.625 C 34.128906 34.320312 30.726562 35.09375 27.34375 34.9375 C 23.96875 34.78125 20.910156 33.769531 18.171875 31.90625 C 15.429688 30.050781 13.253906 27.492188 11.640625 24.234375 C 10.253906 21.453125 9.582031 18.660156 9.625 15.859375 C 9.664062 13.054688 10.4375 10.390625 11.9375 7.859375 L -7.125 17.34375 L -9.421875 12.71875 L 37.421875 -10.578125 L 39.625 -6.140625 L 32.875 -2.78125 C 35.8125 -2.519531 38.453125 -1.550781 40.796875 0.125 C 43.140625 1.800781 45.023438 4.070312 46.453125 6.9375 Z M 15.59375 21.875 C 16.769531 24.257812 18.394531 26.148438 20.46875 27.546875 C 22.550781 28.953125 24.882812 29.703125 27.46875 29.796875 C 30.050781 29.890625 32.644531 29.289062 35.25 28 C 37.851562 26.695312 39.890625 24.992188 41.359375 22.890625 C 42.835938 20.785156 43.648438 18.472656 43.796875 15.953125 C 43.953125 13.441406 43.441406 10.992188 42.265625 8.609375 C 41.054688 6.179688 39.40625 4.28125 37.3125 2.90625 C 35.226562 1.539062 32.898438 0.804688 30.328125 0.703125 C 27.765625 0.597656 25.179688 1.195312 22.578125 2.5 C 19.972656 3.789062 17.925781 5.492188 16.4375 7.609375 C 14.945312 9.722656 14.128906 12.019531 13.984375 14.5 C 13.847656 16.988281 14.382812 19.445312 15.59375 21.875 Z M 15.59375 21.875 "/></g></g></g><g fill="#000000" fill-opacity="1"><g transform="translate(646.95751, 308.418187)"><g><path d="M 28.609375 33.578125 L 19.234375 3 C 15.535156 4.4375 12.914062 6.832031 11.375 10.1875 C 9.84375 13.550781 9.691406 17.25 10.921875 21.28125 C 11.617188 23.550781 12.664062 25.507812 14.0625 27.15625 C 15.457031 28.800781 17.15625 30.082031 19.15625 31 L 16.796875 34.765625 C 14.347656 33.734375 12.242188 32.15625 10.484375 30.03125 C 8.734375 27.914062 7.410156 25.398438 6.515625 22.484375 C 5.359375 18.734375 5.132812 15.164062 5.84375 11.78125 C 6.5625 8.394531 8.082031 5.457031 10.40625 2.96875 C 12.738281 0.488281 15.6875 -1.296875 19.25 -2.390625 C 22.820312 -3.484375 26.257812 -3.6875 29.5625 -3 C 32.863281 -2.3125 35.710938 -0.859375 38.109375 1.359375 C 40.515625 3.585938 42.238281 6.390625 43.28125 9.765625 C 44.3125 13.148438 44.453125 16.425781 43.703125 19.59375 C 42.953125 22.769531 41.40625 25.546875 39.0625 27.921875 C 36.726562 30.304688 33.753906 32.054688 30.140625 33.171875 Z M 39.03125 11.0625 C 37.945312 7.550781 35.914062 4.945312 32.9375 3.25 C 29.96875 1.550781 26.625 1.09375 22.90625 1.875 L 30.84375 27.796875 C 34.363281 26.359375 36.878906 24.101562 38.390625 21.03125 C 39.910156 17.957031 40.125 14.632812 39.03125 11.0625 Z M 39.03125 11.0625 "/></g></g></g><g fill="#000000" fill-opacity="1"><g transform="translate(658.635421, 347.479621)"><g><path d="M 32.328125 6.8125 C 35.078125 7.570312 37.296875 9.019531 38.984375 11.15625 C 40.671875 13.300781 41.8125 16.117188 42.40625 19.609375 L 37.46875 20.453125 L 37.34375 19.21875 C 36.664062 15.257812 34.914062 12.363281 32.09375 10.53125 C 29.269531 8.707031 25.660156 8.171875 21.265625 8.921875 L 2.078125 12.1875 L 1.203125 7.078125 L 38.875 0.671875 L 39.703125 5.5625 Z M 32.328125 6.8125 "/></g></g></g><g fill="#000000" fill-opacity="1"><g transform="translate(663.054162, 374.186337)"><g/></g></g><g fill="#000000" fill-opacity="1"><g transform="translate(664.512448, 391.683013)"><g><path d="M -0.1875 7.71875 C -0.207031 6.65625 0.160156 5.738281 0.921875 4.96875 C 1.679688 4.195312 2.617188 3.800781 3.734375 3.78125 C 4.847656 3.75 5.785156 4.097656 6.546875 4.828125 C 7.316406 5.566406 7.710938 6.46875 7.734375 7.53125 C 7.765625 8.59375 7.410156 9.519531 6.671875 10.3125 C 5.941406 11.101562 5.019531 11.515625 3.90625 11.546875 C 2.789062 11.566406 1.835938 11.195312 1.046875 10.4375 C 0.253906 9.6875 -0.15625 8.78125 -0.1875 7.71875 Z M -0.1875 7.71875 "/></g></g></g><g fill="#000000" fill-opacity="1"><g transform="translate(664.933592, 405.60392)"><g/></g></g><g fill="#000000" fill-opacity="1"><g transform="translate(665.849135, 421.536787)"><g><path d="M -5.375 28.28125 C -4.25 21.78125 -1.503906 17.039062 2.859375 14.0625 C 7.222656 11.09375 12.957031 10.226562 20.0625 11.46875 L 48.78125 16.46875 L 47.859375 21.75 L 19.359375 16.78125 C 13.535156 15.769531 8.960938 16.328125 5.640625 18.453125 C 2.316406 20.585938 0.222656 24.140625 -0.640625 29.109375 C -1.515625 34.109375 -0.75 38.171875 1.65625 41.296875 C 4.0625 44.429688 8.175781 46.503906 14 47.515625 L 42.5 52.484375 L 41.609375 57.640625 L 12.890625 52.640625 C 5.785156 51.398438 0.679688 48.648438 -2.421875 44.390625 C -5.523438 40.128906 -6.507812 34.757812 -5.375 28.28125 Z M -5.375 28.28125 "/></g></g></g><g fill="#000000" fill-opacity="1"><g transform="translate(655.566719, 474.673675)"><g><path d="M 45.859375 23.515625 L 44.203125 28.640625 L -4.203125 13 L -2.546875 7.875 Z M 45.859375 23.515625 "/></g></g></g><g fill="#000000" fill-opacity="1"><g transform="translate(649.550781, 493.711301)"><g><path d="M 47.984375 43.96875 L 46.171875 48.328125 L -7.8125 -0.109375 L -6 -4.46875 Z M 47.984375 43.96875 "/></g></g></g><g fill="#000000" fill-opacity="1"><g transform="translate(642.829001, 513.634959)"><g><path d="M -15.125 24.484375 C -11.75 18.828125 -7.492188 15.382812 -2.359375 14.15625 C 2.773438 12.9375 8.441406 14.175781 14.640625 17.875 L 39.65625 32.828125 L 36.890625 37.4375 L 12.0625 22.59375 C 6.988281 19.5625 2.523438 18.445312 -1.328125 19.25 C -5.191406 20.050781 -8.414062 22.613281 -11 26.9375 C -13.613281 31.300781 -14.351562 35.375 -13.21875 39.15625 C -12.09375 42.9375 -8.992188 46.34375 -3.921875 49.375 L 20.90625 64.21875 L 18.21875 68.71875 L -6.796875 53.765625 C -12.992188 50.066406 -16.773438 45.675781 -18.140625 40.59375 C -19.515625 35.507812 -18.507812 30.140625 -15.125 24.484375 Z M -15.125 24.484375 "/></g></g></g><g fill="#000000" fill-opacity="1"><g transform="translate(615.534577, 559.237281)"><g><path d="M -26.609375 30.109375 L 1.046875 32.640625 L -4.90625 5.546875 L -0.8125 0.921875 L 5.984375 32.734375 L 36.484375 35.53125 L 32.40625 40.15625 L 6.671875 37.890625 L 12.140625 63.09375 L 8.28125 67.453125 L 1.8125 37.671875 L -30.75 34.796875 Z M -26.609375 30.109375 "/></g></g></g><g fill="#000000" fill-opacity="1"><g transform="translate(585.372479, 592.353853)"><g/></g></g><g fill="#000000" fill-opacity="1"><g transform="translate(572.277077, 604.048794)"><g><path d="M -6.265625 4.5 C -5.429688 3.832031 -4.476562 3.570312 -3.40625 3.71875 C -2.34375 3.863281 -1.46875 4.375 -0.78125 5.25 C -0.0820312 6.125 0.203125 7.085938 0.078125 8.140625 C -0.046875 9.191406 -0.523438 10.050781 -1.359375 10.71875 C -2.191406 11.375 -3.144531 11.644531 -4.21875 11.53125 C -5.289062 11.425781 -6.175781 10.9375 -6.875 10.0625 C -7.5625 9.1875 -7.835938 8.203125 -7.703125 7.109375 C -7.578125 6.023438 -7.097656 5.15625 -6.265625 4.5 Z M -6.265625 4.5 "/></g></g></g><g fill="#000000" fill-opacity="1"><g transform="translate(561.413114, 612.763303)"><g/></g></g><g fill="#000000" fill-opacity="1"><g transform="translate(549.992893, 623.447756)"><g><path d="M -32.734375 72.46875 L -54.96875 26.71875 L -50.328125 24.453125 L -32.53125 61.0625 L -29.515625 21.53125 L -27.234375 20.421875 L 5.625 42.28125 L -12.078125 5.875 L -7.453125 3.625 L 14.78125 49.375 L 10.796875 51.3125 L -25.5625 27.046875 L -28.75 70.53125 Z M -32.734375 72.46875 "/></g></g></g><g fill="#000000" fill-opacity="1"><g transform="translate(491.628511, 651.01898)"><g><path d="M -22.203125 5.296875 C -18.640625 4.390625 -15.21875 4.378906 -11.9375 5.265625 C -8.65625 6.160156 -5.828125 7.828125 -3.453125 10.265625 C -1.078125 12.703125 0.566406 15.726562 1.484375 19.34375 C 2.410156 22.957031 2.414062 26.40625 1.5 29.6875 C 0.582031 32.976562 -1.097656 35.785156 -3.546875 38.109375 C -6.003906 40.429688 -9.015625 42.046875 -12.578125 42.953125 C -16.148438 43.867188 -19.570312 43.894531 -22.84375 43.03125 C -26.113281 42.164062 -28.921875 40.503906 -31.265625 38.046875 C -33.617188 35.597656 -35.257812 32.566406 -36.1875 28.953125 C -37.101562 25.335938 -37.113281 21.894531 -36.21875 18.625 C -35.332031 15.351562 -33.664062 12.539062 -31.21875 10.1875 C -28.78125 7.84375 -25.773438 6.210938 -22.203125 5.296875 Z M -21.0625 9.734375 C -23.695312 10.410156 -25.90625 11.609375 -27.6875 13.328125 C -29.476562 15.054688 -30.675781 17.171875 -31.28125 19.671875 C -31.882812 22.179688 -31.828125 24.84375 -31.109375 27.65625 C -30.390625 30.46875 -29.164062 32.828125 -27.4375 34.734375 C -25.707031 36.648438 -23.644531 37.941406 -21.25 38.609375 C -18.851562 39.273438 -16.335938 39.269531 -13.703125 38.59375 C -11.078125 37.925781 -8.875 36.722656 -7.09375 34.984375 C -5.3125 33.253906 -4.101562 31.132812 -3.46875 28.625 C -2.832031 26.113281 -2.875 23.453125 -3.59375 20.640625 C -4.3125 17.828125 -5.550781 15.46875 -7.3125 13.5625 C -9.070312 11.65625 -11.144531 10.375 -13.53125 9.71875 C -15.925781 9.0625 -18.4375 9.066406 -21.0625 9.734375 Z M -21.0625 9.734375 "/></g></g></g><g fill="#000000" fill-opacity="1"><g transform="translate(451.428662, 661.780533)"><g><path d="M -23.609375 40.609375 C -27.179688 40.910156 -30.484375 40.367188 -33.515625 38.984375 C -36.546875 37.609375 -39.003906 35.515625 -40.890625 32.703125 C -42.773438 29.898438 -43.875 26.613281 -44.1875 22.84375 C -44.5 19.070312 -43.957031 15.644531 -42.5625 12.5625 C -41.164062 9.488281 -39.085938 7.007812 -36.328125 5.125 C -33.566406 3.25 -30.398438 2.160156 -26.828125 1.859375 C -23.640625 1.597656 -20.722656 2.035156 -18.078125 3.171875 C -15.429688 4.316406 -13.226562 6.101562 -11.46875 8.53125 L -12.09375 1 L -7.15625 0.59375 L -2.6875 54.328125 L -7.84375 54.75 L -9.75 31.859375 C -11.132812 34.460938 -13.015625 36.507812 -15.390625 38 C -17.773438 39.488281 -20.515625 40.359375 -23.609375 40.609375 Z M -26.09375 6.390625 C -28.738281 6.617188 -31.097656 7.4375 -33.171875 8.84375 C -35.242188 10.25 -36.800781 12.140625 -37.84375 14.515625 C -38.882812 16.890625 -39.285156 19.523438 -39.046875 22.421875 C -38.804688 25.316406 -37.976562 27.84375 -36.5625 30 C -35.144531 32.164062 -33.296875 33.78125 -31.015625 34.84375 C -28.734375 35.90625 -26.269531 36.320312 -23.625 36.09375 C -20.914062 35.875 -18.535156 35.054688 -16.484375 33.640625 C -14.441406 32.222656 -12.898438 30.328125 -11.859375 27.953125 C -10.816406 25.585938 -10.414062 22.957031 -10.65625 20.0625 C -10.894531 17.164062 -11.722656 14.632812 -13.140625 12.46875 C -14.554688 10.300781 -16.390625 8.691406 -18.640625 7.640625 C -20.898438 6.585938 -23.382812 6.171875 -26.09375 6.390625 Z M -26.09375 6.390625 "/></g></g></g><g fill="#000000" fill-opacity="1"><g transform="translate(405.232446, 664.893215)"><g><path d="M -8.65625 37.90625 L -13.8125 37.71875 L -12.34375 -0.46875 L -7.1875 -0.28125 Z M -11.59375 46.171875 C -10.519531 46.210938 -9.632812 46.609375 -8.9375 47.359375 C -8.25 48.117188 -7.921875 49.003906 -7.953125 50.015625 C -7.992188 50.992188 -8.390625 51.828125 -9.140625 52.515625 C -9.890625 53.210938 -10.800781 53.539062 -11.875 53.5 C -12.925781 53.457031 -13.800781 53.070312 -14.5 52.34375 C -15.207031 51.625 -15.546875 50.78125 -15.515625 49.8125 C -15.472656 48.75 -15.070312 47.863281 -14.3125 47.15625 C -13.550781 46.457031 -12.644531 46.128906 -11.59375 46.171875 Z M -11.59375 46.171875 "/></g></g></g><g fill="#000000" fill-opacity="1"><g transform="translate(387.373693, 664.2655)"><g><path d="M -12.90625 52.84375 L -18.046875 52.28125 L -12.28125 -1.328125 L -7.140625 -0.765625 Z M -12.90625 52.84375 "/></g></g></g><g fill="#000000" fill-opacity="1"><g transform="translate(370.495521, 663.281828)"><g><path d="M -43.328125 8.296875 L -12.109375 15.25 C -11.523438 11.3125 -12.316406 7.847656 -14.484375 4.859375 C -16.648438 1.878906 -19.789062 -0.0664062 -23.90625 -0.984375 C -26.226562 -1.503906 -28.445312 -1.566406 -30.5625 -1.171875 C -32.675781 -0.773438 -34.625 0.0664062 -36.40625 1.359375 L -38.53125 -2.546875 C -36.425781 -4.160156 -34.015625 -5.207031 -31.296875 -5.6875 C -28.585938 -6.175781 -25.742188 -6.085938 -22.765625 -5.421875 C -18.929688 -4.578125 -15.71875 -3.007812 -13.125 -0.71875 C -10.539062 1.570312 -8.738281 4.34375 -7.71875 7.59375 C -6.707031 10.84375 -6.609375 14.289062 -7.421875 17.9375 C -8.222656 21.570312 -9.738281 24.65625 -11.96875 27.1875 C -14.195312 29.726562 -16.875 31.492188 -20 32.484375 C -23.125 33.472656 -26.410156 33.582031 -29.859375 32.8125 C -33.316406 32.039062 -36.234375 30.546875 -38.609375 28.328125 C -40.992188 26.117188 -42.648438 23.40625 -43.578125 20.1875 C -44.503906 16.976562 -44.554688 13.53125 -43.734375 9.84375 Z M -28.890625 28.484375 C -25.304688 29.285156 -22.039062 28.8125 -19.09375 27.0625 C -16.144531 25.3125 -14.09375 22.625 -12.9375 19 L -39.40625 13.109375 C -39.882812 16.878906 -39.160156 20.179688 -37.234375 23.015625 C -35.316406 25.847656 -32.535156 27.671875 -28.890625 28.484375 Z M -28.890625 28.484375 "/></g></g></g><g fill="#000000" fill-opacity="1"><g transform="translate(330.419417, 653.810452)"><g/></g></g><g fill="#000000" fill-opacity="1"><g transform="translate(314.937059, 650.263028)"><g><path d="M -30.390625 41.625 L -48.859375 32.265625 C -53.660156 29.835938 -57.410156 26.726562 -60.109375 22.9375 C -62.804688 19.15625 -64.296875 15.03125 -64.578125 10.5625 C -64.867188 6.09375 -63.898438 1.65625 -61.671875 -2.75 C -59.429688 -7.164062 -56.425781 -10.570312 -52.65625 -12.96875 C -48.882812 -15.375 -44.675781 -16.601562 -40.03125 -16.65625 C -35.382812 -16.71875 -30.660156 -15.535156 -25.859375 -13.109375 L -7.390625 -3.75 Z M -27.71875 -8.828125 C -31.6875 -10.835938 -35.5625 -11.8125 -39.34375 -11.75 C -43.125 -11.6875 -46.539062 -10.675781 -49.59375 -8.71875 C -52.644531 -6.769531 -55.09375 -3.976562 -56.9375 -0.34375 C -58.78125 3.289062 -59.585938 6.914062 -59.359375 10.53125 C -59.128906 14.15625 -57.921875 17.507812 -55.734375 20.59375 C -53.546875 23.675781 -50.46875 26.222656 -46.5 28.234375 L -33.078125 35.046875 L -14.296875 -2.015625 Z M -27.71875 -8.828125 "/></g></g></g><g fill="#000000" fill-opacity="1"><g transform="translate(265.457275, 624.801748)"><g><path d="M -42.796875 -10.65625 L -17.375 8.765625 C -15.207031 5.429688 -14.476562 1.957031 -15.1875 -1.65625 C -15.894531 -5.28125 -17.925781 -8.375 -21.28125 -10.9375 C -23.164062 -12.375 -25.15625 -13.359375 -27.25 -13.890625 C -29.34375 -14.421875 -31.46875 -14.472656 -33.625 -14.046875 L -33.90625 -18.46875 C -31.3125 -19.0625 -28.679688 -19.007812 -26.015625 -18.3125 C -23.347656 -17.613281 -20.804688 -16.335938 -18.390625 -14.484375 C -15.265625 -12.097656 -13.003906 -9.320312 -11.609375 -6.15625 C -10.222656 -3 -9.75 0.265625 -10.1875 3.640625 C -10.632812 7.015625 -11.988281 10.1875 -14.25 13.15625 C -16.519531 16.125 -19.195312 18.289062 -22.28125 19.65625 C -25.363281 21.019531 -28.53125 21.492188 -31.78125 21.078125 C -35.03125 20.671875 -38.0625 19.394531 -40.875 17.25 C -43.6875 15.09375 -45.707031 12.507812 -46.9375 9.5 C -48.164062 6.488281 -48.523438 3.332031 -48.015625 0.03125 C -47.515625 -3.269531 -46.113281 -6.421875 -43.8125 -9.421875 Z M -38.1875 13.71875 C -35.257812 15.945312 -32.09375 16.882812 -28.6875 16.53125 C -25.28125 16.1875 -22.289062 14.613281 -19.71875 11.8125 L -41.265625 -4.640625 C -43.285156 -1.421875 -44.015625 1.875 -43.453125 5.25 C -42.898438 8.632812 -41.144531 11.457031 -38.1875 13.71875 Z M -38.1875 13.71875 "/></g></g></g><g fill="#000000" fill-opacity="1"><g transform="translate(233.314583, 600.377672)"><g><path d="M -54.8125 -1.515625 L -15.5625 -15.984375 L -11.859375 -12.1875 L -27.4375 26.59375 L -31.1875 22.75 L -17.84375 -10.203125 L -51.265625 2.125 Z M -54.8125 -1.515625 "/></g></g></g><g fill="#000000" fill-opacity="1"><g transform="translate(207.975673, 574.948444)"><g><path d="M -37.890625 -22.578125 L -19.171875 3.359375 C -16.128906 0.796875 -14.421875 -2.316406 -14.046875 -5.984375 C -13.679688 -9.660156 -14.734375 -13.207031 -17.203125 -16.625 C -18.585938 -18.550781 -20.203125 -20.070312 -22.046875 -21.1875 C -23.898438 -22.300781 -25.921875 -22.960938 -28.109375 -23.171875 L -27.109375 -27.484375 C -24.460938 -27.304688 -21.960938 -26.492188 -19.609375 -25.046875 C -17.253906 -23.609375 -15.1875 -21.65625 -13.40625 -19.1875 C -11.101562 -16 -9.742188 -12.691406 -9.328125 -9.265625 C -8.921875 -5.835938 -9.414062 -2.570312 -10.8125 0.53125 C -12.207031 3.632812 -14.421875 6.28125 -17.453125 8.46875 C -20.472656 10.644531 -23.65625 11.941406 -27 12.359375 C -30.351562 12.773438 -33.523438 12.316406 -36.515625 10.984375 C -39.515625 9.648438 -42.050781 7.554688 -44.125 4.703125 C -46.195312 1.828125 -47.382812 -1.226562 -47.6875 -4.46875 C -47.988281 -7.707031 -47.421875 -10.832031 -45.984375 -13.84375 C -44.546875 -16.863281 -42.296875 -19.476562 -39.234375 -21.6875 Z M -40.515625 2.09375 C -38.359375 5.070312 -35.597656 6.882812 -32.234375 7.53125 C -28.878906 8.1875 -25.5625 7.546875 -22.28125 5.609375 L -38.15625 -16.375 C -41.03125 -13.875 -42.6875 -10.925781 -43.125 -7.53125 C -43.5625 -4.144531 -42.691406 -0.9375 -40.515625 2.09375 Z M -40.515625 2.09375 "/></g></g></g><g fill="#000000" fill-opacity="1"><g transform="translate(184.31621, 541.271521)"><g><path d="M -50.5 20.21875 L -53.046875 15.71875 L -6.078125 -10.765625 L -3.53125 -6.265625 Z M -50.5 20.21875 "/></g></g></g><g fill="#000000" fill-opacity="1"><g transform="translate(175.266311, 527.064112)"><g><path d="M -8.53125 -21.15625 C -7.101562 -17.769531 -6.585938 -14.390625 -6.984375 -11.015625 C -7.378906 -7.648438 -8.601562 -4.609375 -10.65625 -1.890625 C -12.71875 0.816406 -15.46875 2.894531 -18.90625 4.34375 C -22.34375 5.789062 -25.753906 6.300781 -29.140625 5.875 C -32.523438 5.457031 -35.550781 4.207031 -38.21875 2.125 C -40.882812 0.0507812 -42.929688 -2.675781 -44.359375 -6.0625 C -45.785156 -9.46875 -46.3125 -12.847656 -45.9375 -16.203125 C -45.5625 -19.566406 -44.335938 -22.59375 -42.265625 -25.28125 C -40.191406 -27.96875 -37.4375 -30.035156 -34 -31.484375 C -30.5625 -32.929688 -27.15625 -33.457031 -23.78125 -33.0625 C -20.414062 -32.664062 -17.390625 -31.429688 -14.703125 -29.359375 C -12.015625 -27.296875 -9.957031 -24.5625 -8.53125 -21.15625 Z M -12.75 -19.375 C -13.800781 -21.882812 -15.3125 -23.890625 -17.28125 -25.390625 C -19.257812 -26.898438 -21.53125 -27.769531 -24.09375 -28 C -26.664062 -28.226562 -29.289062 -27.78125 -31.96875 -26.65625 C -34.644531 -25.53125 -36.796875 -23.96875 -38.421875 -21.96875 C -40.054688 -19.96875 -41.023438 -17.734375 -41.328125 -15.265625 C -41.628906 -12.804688 -41.253906 -10.320312 -40.203125 -7.8125 C -39.148438 -5.320312 -37.632812 -3.320312 -35.65625 -1.8125 C -33.675781 -0.300781 -31.394531 0.578125 -28.8125 0.828125 C -26.238281 1.078125 -23.613281 0.640625 -20.9375 -0.484375 C -18.257812 -1.609375 -16.109375 -3.179688 -14.484375 -5.203125 C -12.867188 -7.222656 -11.910156 -9.46875 -11.609375 -11.9375 C -11.316406 -14.40625 -11.695312 -16.882812 -12.75 -19.375 Z M -12.75 -19.375 "/></g></g></g><g fill="#000000" fill-opacity="1"><g transform="translate(158.660275, 488.904318)"><g><path d="M -43.65625 -17.328125 C -44.476562 -20.816406 -44.429688 -24.160156 -43.515625 -27.359375 C -42.597656 -30.566406 -40.894531 -33.304688 -38.40625 -35.578125 C -35.914062 -37.859375 -32.828125 -39.429688 -29.140625 -40.296875 C -25.421875 -41.171875 -21.929688 -41.148438 -18.671875 -40.234375 C -15.410156 -39.316406 -12.660156 -37.640625 -10.421875 -35.203125 C -8.191406 -32.773438 -6.660156 -29.789062 -5.828125 -26.25 C -5.117188 -23.226562 -5.097656 -20.359375 -5.765625 -17.640625 C -6.441406 -14.921875 -7.800781 -12.5 -9.84375 -10.375 L 10.875 -15.265625 L 12.0625 -10.234375 L -38.859375 1.78125 L -39.984375 -3.03125 L -32.640625 -4.765625 C -35.453125 -5.703125 -37.804688 -7.25 -39.703125 -9.40625 C -41.609375 -11.570312 -42.925781 -14.210938 -43.65625 -17.328125 Z M -10.203125 -24.859375 C -10.804688 -27.441406 -11.957031 -29.65625 -13.65625 -31.5 C -15.363281 -33.34375 -17.46875 -34.597656 -19.96875 -35.265625 C -22.46875 -35.941406 -25.128906 -35.945312 -27.953125 -35.28125 C -30.785156 -34.613281 -33.15625 -33.421875 -35.0625 -31.703125 C -36.976562 -29.992188 -38.296875 -27.929688 -39.015625 -25.515625 C -39.742188 -23.097656 -39.804688 -20.597656 -39.203125 -18.015625 C -38.578125 -15.367188 -37.398438 -13.140625 -35.671875 -11.328125 C -33.953125 -9.523438 -31.851562 -8.28125 -29.375 -7.59375 C -26.894531 -6.90625 -24.238281 -6.894531 -21.40625 -7.5625 C -18.582031 -8.226562 -16.203125 -9.425781 -14.265625 -11.15625 C -12.335938 -12.882812 -11.019531 -14.9375 -10.3125 -17.3125 C -9.613281 -19.695312 -9.578125 -22.210938 -10.203125 -24.859375 Z M -10.203125 -24.859375 "/></g></g></g><g fill="#000000" fill-opacity="1"><g transform="translate(148.146073, 444.784957)"><g><path d="M -20.203125 -39.203125 L -18.046875 -7.296875 C -14.109375 -7.859375 -11.007812 -9.597656 -8.75 -12.515625 C -6.488281 -15.429688 -5.503906 -19 -5.796875 -23.21875 C -5.953125 -25.582031 -6.519531 -27.722656 -7.5 -29.640625 C -8.488281 -31.566406 -9.851562 -33.203125 -11.59375 -34.546875 L -8.453125 -37.671875 C -6.304688 -36.117188 -4.613281 -34.109375 -3.375 -31.640625 C -2.144531 -29.179688 -1.425781 -26.429688 -1.21875 -23.390625 C -0.957031 -19.460938 -1.554688 -15.929688 -3.015625 -12.796875 C -4.472656 -9.671875 -6.617188 -7.160156 -9.453125 -5.265625 C -12.285156 -3.378906 -15.5625 -2.304688 -19.28125 -2.046875 C -23 -1.796875 -26.390625 -2.378906 -29.453125 -3.796875 C -32.523438 -5.222656 -34.972656 -7.289062 -36.796875 -10 C -38.628906 -12.71875 -39.664062 -15.835938 -39.90625 -19.359375 C -40.144531 -22.890625 -39.539062 -26.113281 -38.09375 -29.03125 C -36.644531 -31.945312 -34.507812 -34.300781 -31.6875 -36.09375 C -28.863281 -37.882812 -25.566406 -38.90625 -21.796875 -39.15625 Z M -35.484375 -19.671875 C -35.234375 -16.003906 -33.851562 -13.003906 -31.34375 -10.671875 C -28.832031 -8.335938 -25.679688 -7.128906 -21.890625 -7.046875 L -23.71875 -34.09375 C -27.46875 -33.488281 -30.425781 -31.863281 -32.59375 -29.21875 C -34.769531 -26.570312 -35.734375 -23.390625 -35.484375 -19.671875 Z M -35.484375 -19.671875 "/></g></g></g><g fill="#000000" fill-opacity="1"><g transform="translate(145.663559, 404.095338)"><g><path d="M -29.9375 -14 C -32.4375 -15.351562 -34.257812 -17.265625 -35.40625 -19.734375 C -36.5625 -22.203125 -37.035156 -25.207031 -36.828125 -28.75 L -31.828125 -28.453125 L -31.984375 -27.21875 C -32.222656 -23.207031 -31.175781 -19.988281 -28.84375 -17.5625 C -26.519531 -15.144531 -23.132812 -13.800781 -18.6875 -13.53125 L 0.75 -12.34375 L 0.4375 -7.171875 L -37.703125 -9.5 L -37.40625 -14.453125 Z M -29.9375 -14 "/></g></g></g><g fill="#000000" fill-opacity="1"><g transform="translate(147.441603, 377.079788)"><g/></g></g><g fill="#000000" fill-opacity="1"><g transform="translate(150.004119, 359.710441)"><g><path d="M 1.9375 -7.46875 C 1.71875 -6.425781 1.148438 -5.617188 0.234375 -5.046875 C -0.671875 -4.472656 -1.671875 -4.300781 -2.765625 -4.53125 C -3.859375 -4.757812 -4.695312 -5.316406 -5.28125 -6.203125 C -5.863281 -7.085938 -6.046875 -8.050781 -5.828125 -9.09375 C -5.609375 -10.125 -5.050781 -10.941406 -4.15625 -11.546875 C -3.257812 -12.160156 -2.265625 -12.351562 -1.171875 -12.125 C -0.078125 -11.894531 0.765625 -11.316406 1.359375 -10.390625 C 1.960938 -9.472656 2.15625 -8.5 1.9375 -7.46875 Z M 1.9375 -7.46875 "/></g></g></g><g fill="#000000" fill-opacity="1"><g transform="translate(152.762659, 346.059114)"><g/></g></g></svg>